<svg width="101" height="100" viewBox="0 0 101 100" fill="none" xmlns="http://www.w3.org/2000/svg">
<path d="M98.9158 29.5837L97.3577 35.3808C97.306 35.5716 97.1933 35.7401 97.0367 35.8603C96.88 35.9804 96.6881 36.0456 96.4903 36.0454H69.9515C69.7537 36.0453 69.5612 36.1104 69.4045 36.2309C69.2479 36.3513 69.1352 36.52 69.0841 36.7109L68.7426 37.984L66.6528 45.7652L63.1944 58.6412L59.7274 71.5455L52.666 97.8389C52.6203 98.0109 52.5242 98.1658 52.3902 98.2838C52.2561 98.4011 52.09 98.4763 51.9131 98.4991C51.7362 98.5221 51.5565 98.4915 51.397 98.4124C51.2373 98.3326 51.105 98.2075 51.0168 98.0521L46.8008 90.6785C46.6836 90.4726 46.6523 90.2284 46.7135 89.999L51.6707 71.5455L58.5963 45.7662L60.686 37.9849L61.206 36.0445L61.2406 35.9125L55.3504 29.9833C55.2255 29.8575 55.1407 29.6974 55.1066 29.5234C55.0725 29.3493 55.0908 29.1692 55.1588 29.0055C55.227 28.8417 55.3421 28.7018 55.4895 28.6034C55.6371 28.5051 55.8103 28.4524 55.9876 28.4524H98.0484C98.1863 28.4524 98.322 28.4841 98.4457 28.5451C98.5689 28.6062 98.677 28.6948 98.7609 28.8041C98.8449 28.9135 98.9024 29.0407 98.9294 29.1758C98.9557 29.3109 98.951 29.4505 98.9158 29.5837Z" fill="#E11D48"/>
<path d="M76.2566 46.4305L71.621 63.6863C71.5729 63.8653 71.5816 64.0542 71.6456 64.228C71.7097 64.4016 71.8258 64.5513 71.9778 64.6564L79.6312 69.9018C79.7908 70.0092 79.9117 70.1652 79.9762 70.3472C80.0403 70.5291 80.0443 70.7263 79.9875 70.9107C79.9311 71.0948 79.8166 71.2563 79.6611 71.3701C79.5062 71.4845 79.3184 71.5457 79.1253 71.545H62.6338C62.4957 71.545 62.3602 71.5134 62.2365 71.4523C62.1131 71.3913 62.0052 71.3026 61.9213 71.1935C61.8373 71.0838 61.7798 70.957 61.7528 70.8214C61.7265 70.6864 61.7305 70.5467 61.7664 70.4136L64.6596 59.6442L68.3874 45.7698L70.3018 38.6541C70.3528 38.4632 70.4655 38.2945 70.6222 38.1741C70.7788 38.0538 70.9713 37.9885 71.1685 37.9885H95.4883C95.6256 37.9885 95.7619 38.0203 95.8856 38.0814C96.009 38.1424 96.1169 38.2309 96.2007 38.3403C96.2847 38.4496 96.3422 38.5768 96.3687 38.7119C96.3956 38.8472 96.3909 38.9866 96.3551 39.1198L94.7477 45.1053C94.6967 45.296 94.584 45.4643 94.4267 45.5845C94.27 45.7046 94.0781 45.7698 93.881 45.7698H77.124C76.9268 45.7696 76.7356 45.8342 76.5788 45.9535C76.4222 46.073 76.3089 46.2405 76.2566 46.4305Z" fill="#E11D48"/>
<path d="M39.6733 63.9533L39.6384 64.0823L45.5307 70.015C45.655 70.1405 45.7394 70.3002 45.7734 70.474C45.8075 70.647 45.7896 70.8266 45.7221 70.9898C45.6546 71.1536 45.5404 71.2931 45.3939 71.3918C45.2473 71.4903 45.0749 71.5438 44.8982 71.5449H2.83472C2.69704 71.5449 2.56122 71.5132 2.43775 71.4522C2.31429 71.3912 2.20648 71.3031 2.12266 71.1935C2.03884 71.0843 1.98125 70.9575 1.95434 70.8225C1.92743 70.6875 1.93191 70.5478 1.96745 70.4146L6.13888 54.8911C6.19028 54.7003 6.3031 54.5319 6.45987 54.4117C6.61665 54.2916 6.80865 54.2264 7.00614 54.2264H23.7637C23.9613 54.2262 24.1532 54.1609 24.31 54.0406C24.4667 53.9203 24.5795 53.7516 24.6309 53.5608L29.267 36.3051C29.3144 36.126 29.3052 35.9367 29.2408 35.763C29.1764 35.5893 29.0598 35.4398 28.9071 35.3349L21.255 30.0899C21.0965 29.9816 20.9769 29.8254 20.9137 29.6443C20.8505 29.4632 20.8469 29.2664 20.9037 29.083C20.9604 28.8998 21.0744 28.7395 21.2289 28.6257C21.3835 28.5119 21.5704 28.4508 21.7624 28.4511H38.2541C38.3918 28.4511 38.5278 28.4828 38.6514 28.544C38.7749 28.6049 38.8827 28.6935 38.9665 28.8028C39.0505 28.9123 39.108 29.0394 39.1349 29.1745C39.1616 29.3098 39.1571 29.4493 39.1213 29.5824L36.2275 40.352L32.4945 54.2313L30.5834 61.3487C30.5323 61.54 30.4195 61.7085 30.2627 61.8288C30.106 61.9491 29.9139 62.0142 29.7161 62.0142H12.8093C12.6118 62.0147 12.4198 62.0793 12.263 62.1996C12.1063 62.3199 11.9934 62.4884 11.942 62.6791L11.9042 62.8217C11.8685 62.9549 11.8638 63.0946 11.8907 63.2296C11.9175 63.3646 11.9751 63.4919 12.0589 63.6011C12.1428 63.7109 12.2506 63.7994 12.3742 63.8606C12.4977 63.921 12.6337 63.9533 12.7715 63.9533H30.9317C31.1294 63.9533 31.3215 63.8881 31.4784 63.7677C31.6353 63.6474 31.7479 63.4785 31.7989 63.2876L32.1405 62.0142L34.2311 54.2313L37.6885 41.3582L41.1556 28.454L48.219 2.16063C48.2648 1.98827 48.3609 1.8335 48.495 1.71598C48.6292 1.59848 48.7954 1.52356 48.9722 1.50077C49.149 1.47798 49.3286 1.50835 49.4883 1.58803C49.6478 1.6677 49.78 1.79306 49.8681 1.94814L54.0822 9.32194C54.1995 9.52805 54.2308 9.77201 54.1695 10.0011L49.2124 28.4521L42.2867 54.2313L40.1972 62.0142L39.6733 63.9533Z" fill="#E11D48"/>
</svg>
