<svg width="70" height="72" viewBox="0 0 70 72" fill="none" xmlns="http://www.w3.org/2000/svg">
<path d="M69.9781 21.268L68.8538 25.4511C68.8165 25.5888 68.7352 25.7104 68.6222 25.7971C68.5091 25.8838 68.3706 25.9308 68.2279 25.9307H49.078C48.9353 25.9306 48.7964 25.9776 48.6833 26.0645C48.5703 26.1514 48.489 26.2731 48.4521 26.4109L48.2057 27.3295L46.6977 32.9443L44.2022 42.2354L41.7005 51.5469L36.6051 70.5197C36.5721 70.6438 36.5028 70.7556 36.4061 70.8407C36.3093 70.9254 36.1895 70.9796 36.0618 70.9961C35.9342 71.0127 35.8045 70.9906 35.6894 70.9335C35.5742 70.8759 35.4787 70.7857 35.4151 70.6735L32.3729 65.3529C32.2883 65.2043 32.2657 65.0281 32.3099 64.8626L35.8869 51.5469L40.8843 32.945L42.3922 27.3302L42.7674 25.93L42.7924 25.8348L38.5421 21.5564C38.452 21.4656 38.3908 21.3501 38.3662 21.2245C38.3416 21.0989 38.3548 20.9689 38.4039 20.8508C38.4531 20.7326 38.5361 20.6317 38.6425 20.5607C38.749 20.4897 38.874 20.4517 39.0019 20.4517H69.3522C69.4517 20.4517 69.5496 20.4746 69.6389 20.5186C69.7278 20.5627 69.8058 20.6266 69.8663 20.7055C69.9269 20.7844 69.9684 20.8762 69.9879 20.9737C70.0069 21.0712 70.0035 21.1719 69.9781 21.268Z" fill="#E11D48"/>
<path d="M53.6277 33.4244L50.2827 45.8758C50.248 46.005 50.2543 46.1413 50.3005 46.2667C50.3467 46.392 50.4305 46.5 50.5402 46.5758L56.0627 50.3608C56.1779 50.4383 56.2651 50.5509 56.3117 50.6822C56.3579 50.8135 56.3608 50.9558 56.3198 51.0888C56.2791 51.2217 56.1965 51.3382 56.0843 51.4203C55.9725 51.5029 55.837 51.547 55.6977 51.5465H43.7977C43.6981 51.5465 43.6003 51.5237 43.511 51.4796C43.422 51.4356 43.3441 51.3716 43.2836 51.2929C43.223 51.2137 43.1815 51.1222 43.162 51.0244C43.143 50.927 43.1459 50.8262 43.1718 50.7301L45.2595 42.9591L47.9494 32.9476L49.3308 27.8131C49.3676 27.6753 49.4489 27.5536 49.562 27.4667C49.675 27.3799 49.8139 27.3328 49.9562 27.3328H67.5049C67.604 27.3328 67.7023 27.3557 67.7916 27.3998C67.8806 27.4438 67.9585 27.5077 68.019 27.5866C68.0796 27.6655 68.1211 27.7573 68.1402 27.8548C68.1596 27.9524 68.1562 28.053 68.1304 28.1491L66.9705 32.4681C66.9337 32.6057 66.8524 32.7272 66.7389 32.8139C66.6258 32.9006 66.4873 32.9476 66.3451 32.9476H54.2536C54.1113 32.9475 53.9733 32.9941 53.8602 33.0802C53.7472 33.1664 53.6654 33.2873 53.6277 33.4244Z" fill="#E11D48"/>
<path d="M27.2298 46.0684L27.2046 46.1615L31.4564 50.4424C31.5461 50.533 31.607 50.6482 31.6315 50.7736C31.6561 50.8985 31.6432 51.0281 31.5945 51.1458C31.5458 51.264 31.4634 51.3647 31.3577 51.4359C31.2519 51.507 31.1275 51.5456 31 51.5464H0.647766C0.548419 51.5464 0.450415 51.5235 0.361326 51.4795C0.272236 51.4355 0.194446 51.3719 0.133963 51.2928C0.0734806 51.214 0.0319244 51.1225 0.0125044 51.0251C-0.00691557 50.9277 -0.00367962 50.8269 0.0219623 50.7308L3.03199 39.5293C3.06908 39.3916 3.15049 39.2701 3.26361 39.1834C3.37674 39.0967 3.51528 39.0497 3.65779 39.0497H15.7497C15.8923 39.0495 16.0308 39.0024 16.1439 38.9156C16.257 38.8288 16.3384 38.7071 16.3755 38.5694L19.7208 26.118C19.755 25.9888 19.7484 25.8522 19.7019 25.7268C19.6554 25.6015 19.5713 25.4936 19.4611 25.4179L13.9395 21.6332C13.8251 21.5551 13.7388 21.4424 13.6932 21.3117C13.6476 21.181 13.645 21.039 13.686 20.9067C13.7269 20.7745 13.8092 20.6588 13.9207 20.5767C14.0322 20.4946 14.1671 20.4505 14.3056 20.4507H26.2057C26.3051 20.4507 26.4032 20.4736 26.4924 20.5177C26.5815 20.5617 26.6593 20.6256 26.7198 20.7045C26.7804 20.7835 26.8219 20.8752 26.8413 20.9727C26.8606 21.0703 26.8573 21.171 26.8315 21.267L24.7434 29.0382L22.0497 39.0532L20.6707 44.189C20.6338 44.327 20.5524 44.4486 20.4393 44.5354C20.3262 44.6222 20.1876 44.6692 20.0449 44.6692H7.84522C7.70272 44.6696 7.56416 44.7162 7.45105 44.803C7.33794 44.8898 7.25651 45.0114 7.21941 45.149L7.19214 45.2519C7.16635 45.348 7.16301 45.4488 7.1824 45.5462C7.20175 45.6436 7.2433 45.7355 7.30377 45.8143C7.36428 45.8935 7.44212 45.9574 7.53126 46.0015C7.6204 46.0451 7.71852 46.0684 7.81795 46.0684H20.922C21.0647 46.0684 21.2033 46.0214 21.3165 45.9345C21.4297 45.8477 21.511 45.7258 21.5478 45.5881L21.7943 44.6692L23.3028 39.0532L25.7976 29.7642L28.2994 20.4528L33.3962 1.47999C33.4293 1.35562 33.4986 1.24394 33.5954 1.15914C33.6922 1.07435 33.8121 1.02029 33.9397 1.00385C34.0673 0.987406 34.1969 1.00932 34.3121 1.06681C34.4272 1.1243 34.5226 1.21476 34.5862 1.32666L37.627 6.64746C37.7116 6.79618 37.7342 6.97222 37.69 7.13754L34.113 20.4514L29.1156 39.0532L27.6078 44.6692L27.2298 46.0684Z" fill="#E11D48"/>
</svg>
